PathFileType	4	(X/Y/Z)	C:\Users\chris\Documents\GitHub\baseballds\vids\pitch2_Sports2D\pitch2_Sports2D_m_person00.trc
DataRate	CameraRate	NumFrames	NumMarkers	Units	OrigDataRate	OrigDataStartFrame	OrigNumFrames
30	30	6	22	m	30	121	243
Frame#	Time	Hip			RHip			RKnee			RAnkle			RBigToe			RSmallToe			RHeel			LHip			LKnee			LAnkle			LBigToe			LSmallToe			LHeel			Neck			Head			Nose			RShoulder			RElbow			RWrist			LShoulder			LElbow			LWrist		
		X1	Y1	Z1	X2	Y2	Z2	X3	Y3	Z3	X4	Y4	Z4	X5	Y5	Z5	X6	Y6	Z6	X7	Y7	Z7	X8	Y8	Z8	X9	Y9	Z9	X10	Y10	Z10	X11	Y11	Z11	X12	Y12	Z12	X13	Y13	Z13	X14	Y14	Z14	X15	Y15	Z15	X16	Y16	Z16	X17	Y17	Z17	X18	Y18	Z18	X19	Y19	Z19	X20	Y20	Z20	X21	Y21	Z21	X22	Y22	Z22
121	4.033333333333333	0.39853089981652895	0.5683984631437583	0.0	0.3981141542301965	0.5273285043454385	0.0	0.7166007382506049	0.23666801012489658	0.0	0.8860210292346582	-0.12907636094963595	0.0	1.1253110497381775	-0.07689432841001588	0.0	1.0934427193653147	-0.11619774279954179	0.0	0.8825473756747741	-0.20310773324041645	0.0	0.45488441068215424	0.5667367236995624	0.0	0.7239190958606051	0.2653407250493779	0.0	0.8684628635623599	-0.03395705569892567	0.0	1.092752571577927	-0.002090015109424725	0.0	1.0520602515825153	0.012652579392994535	0.0	0.8570121333476733	-0.09824207142122161	0.0	0.1621562678905215	1.1101221879995617	0.0	0.19219024252099262	1.3582420032747868	0.0	0.3123028838083442	1.2070829576432396	0.0	0.14986480186711681	0.9978544887430916	0.0	0.3112319838785272	0.7300906431406999	0.0	0.5548292141736644	0.8618452462747441	0.0	0.23000466950316573	1.0397664183337516	0.0	0.36515579052184965	0.7997304228486284	0.0	0.5572515017549666	0.8653948659031673	0.0
122	4.066666666666666	0.39907554085921754	0.5694860304175549	0.0	0.39861874485537824	0.5253953153966421	0.0	0.7170574804924004	0.2359993165679838	0.0	0.8861295847811034	-0.1291952687222482	0.0	1.1277379892258164	-0.07795307734262534	0.0	1.0955954698551673	-0.11586695244762246	0.0	0.883412738242418	-0.20337134923504555	0.0	0.45849179821750874	0.5652191672652589	0.0	0.7230027669258383	0.2640160234548873	0.0	0.8664785369875679	-0.032268284138172405	0.0	1.0918607804171019	-0.007139688719347893	0.0	1.0508206164783116	0.009634448153265827	0.0	0.8556071344663374	-0.09759454287076436	0.0	0.1644273223502459	1.1073093912418757	0.0	0.19217211783248214	1.3564497498949977	0.0	0.3115791911382153	1.2073550198265943	0.0	0.14937651374064434	0.9960475834698852	0.0	0.3123100260456373	0.7297267055031613	0.0	0.5571292117037985	0.8632083525707139	0.0	0.23604197891198103	1.0409631958326788	0.0	0.37148804265754704	0.8036654414998006	0.0	0.5633619803467035	0.8676820476941223	0.0
123	4.1	0.39807495694620443	0.5701908667943052	0.0	0.39803616089196103	0.5272934226511233	0.0	0.7169642215911296	0.23536486648169475	0.0	0.8873657040852165	-0.13318718566447302	0.0	1.1260375630360089	-0.0820144334570855	0.0	1.0938056650852888	-0.12110747741521263	0.0	0.8846522872519494	-0.2043206341320076	0.0	0.45945681006547023	0.5686909763814129	0.0	0.7225545805529939	0.26559969171791475	0.0	0.867862536972813	-0.030679174089607245	0.0	1.088949720417657	-0.004016111704981813	0.0	1.0495654025548875	0.013362542855369348	0.0	0.8566442455931697	-0.09479731222391803	0.0	0.1674938986019542	1.1074931997087476	0.0	0.19023563012510417	1.356998168803032	0.0	0.31119749274460884	1.2119674468360213	0.0	0.15063245489364252	0.9975708053463305	0.0	0.31348861068482536	0.7294180395997777	0.0	0.5591801021343851	0.864979759153696	0.0	0.23623278525186017	1.0427438388908212	0.0	0.3693266471947901	0.8032013956839772	0.0	0.5637107159552363	0.8663813975724985	0.0
124	4.133333333333333	0.3962852376860273	0.569958415307728	0.0	0.3965655997568289	0.530028504327892	0.0	0.7160630071471346	0.23487299439305237	0.0	0.8895533396722365	-0.13647741807383199	0.0	1.1241395051984562	-0.08512991888524966	0.0	1.0922915046237445	-0.1243961180064715	0.0	0.8856884437714366	-0.20519484874974758	0.0	0.4585595635132497	0.5726148710112478	0.0	0.7234321518302915	0.2675280836448026	0.0	0.871685080347531	-0.029800320345953268	0.0	1.0881819292573243	0.0008513966675555993	0.0	1.0503526686166536	0.017517123067770368	0.0	0.860082868087698	-0.09205916218344155	0.0	0.16996447474952214	1.1100816547384083	0.0	0.1867983799933072	1.359144303137162	0.0	0.31123774279628424	1.218237355764794	0.0	0.1528188951111693	1.0018871468066999	0.0	0.3142436442046281	0.7299632351480457	0.0	0.56063552680148	0.8658522737182538	0.0	0.23355095649551608	1.043831727273718	0.0	0.36704351809993024	0.8025076712864312	0.0	0.5633909254111115	0.8660365023088918	0.0
125	4.166666666666667	0.39623588684271865	0.5696754008266706	0.0	0.39612705248417535	0.5299844066719256	0.0	0.7158162036100497	0.2354031902891762	0.0	0.8910948220040377	-0.13605155298412105	0.0	1.124079468178467	-0.08532837390465933	0.0	1.0929618788091475	-0.12186855881934328	0.0	0.8852105695978596	-0.2056524496383741	0.0	0.45916269419280303	0.5729962867920386	0.0	0.7244263317022485	0.2671231607765952	0.0	0.873653059935582	-0.027690853350252655	0.0	1.0897577349099892	0.00022563764521457369	0.0	1.0513219335674036	0.016934686648475212	0.0	0.8629559493830624	-0.08974082665118799	0.0	0.17058271404662528	1.1117668574619675	0.0	0.182131135075056	1.3609555125956474	0.0	0.31075872362205065	1.2229650877817175	0.0	0.15388475753091888	1.004687953819037	0.0	0.31495825179073	0.7312748406893609	0.0	0.5613317879967945	0.8651431177848157	0.0	0.23461921984448925	1.0435431835035056	0.0	0.3733052733808208	0.8056799328628997	0.0	0.5676369297165563	0.8691760442344294	0.0
126	4.2	0.3981152353569239	0.5701479566187407	0.0	0.39827598537283476	0.5287310379298672	0.0	0.716386645065269	0.23675104053070692	0.0	0.891082274445208	-0.1328786737650569	0.0	1.1218599040348436	-0.08460999279573654	0.0	1.091881169160013	-0.11969029025144896	0.0	0.8832561633582614	-0.20516135905781321	0.0	0.4606709019614783	0.5718950656072642	0.0	0.7242325652983087	0.2664465560465031	0.0	0.8720417288174839	-0.024598858767558785	0.0	1.0888304493336491	-0.0005954914357146603	0.0	1.0494664909428504	0.016657350486190242	0.0	0.8626809150946472	-0.08773949153497454	0.0	0.17002774520444494	1.112130463198932	0.0	0.17740165776126005	1.3620488747734267	0.0	0.31012587477589815	1.2266554347124203	0.0	0.1535115595803285	1.0045280512393118	0.0	0.3165675449387179	0.7323268369565437	0.0	0.5608962607395152	0.8649183015194121	0.0	0.23771811571915594	1.042712755081543	0.0	0.37979475019609166	0.8085864644127748	0.0	0.5712044245739442	0.8704536070382629	0.0
